
<svg width="227px" height="202px" viewBox="0 0 227 202" version="1.1" xmlns="http://www.w3.org/2000/svg" xmlns:xlink="http://www.w3.org/1999/xlink">
    <!-- Generator: Sketch 49 (51002) - http://www.bohemiancoding.com/sketch -->
    <desc>Created with Sketch.</desc>
    <defs></defs>
    <g id="Page-1" stroke="none" stroke-width="1" fill="none" fill-rule="evenodd">
        <g id="react" fill="#53C1DE" fill-rule="nonzero">
            <path d="M186.025,65.674 C210.429,74.075 226.199,87.235 226.199,100.842 C226.199,115.033 209.346,128.908 183.442,137.49 C182.073,137.944 180.67,138.38 179.24,138.802 C179.75,140.854 180.205,142.869 180.595,144.842 C185.709,170.673 181.771,191.904 169.651,198.92 C157.916,205.713 138.95,199.04 119.746,182.515 C117.658613,180.714448 115.621822,178.856059 113.638,176.942 C112.063,178.465 110.49,179.918 108.923,181.288 C89.097,198.618 68.737,205.808 56.606,198.813 C44.861,192.038 41.17,172.275 45.896,147.385 C46.4124042,144.67999 47.0043019,141.98994 47.671,139.318 C45.6187811,138.732195 43.5814818,138.09533 41.561,137.408 C16.643,128.892 0.243,114.846 0.243,100.842 C0.243,87.284 15.521,74.212 39.443,65.872 C42.117,64.94 44.912,64.064 47.806,63.242 C47.1860333,60.761881 46.6291869,58.266409 46.136,55.758 C41.179,30.428 44.667,10.185 56.443,3.368 C68.724,-3.741 89.177,3.893 109.582,22.011 C110.851246,23.1404488 112.09946,24.2933132 113.326,25.469 C115.157551,23.7008924 117.033483,21.9793431 118.952,20.306 C138.422,3.363 157.7,-3.725 169.487,3.073 C181.781,10.161 185.381,31.693 179.875,58.421 C179.530956,60.0814561 179.156225,61.7354057 178.751,63.382 C181.194532,64.084785 183.619969,64.8490275 186.025,65.674 Z M180.406,129.328 L180.407,129.328 C202.772,121.917 216.547,110.577 216.547,101.842 C216.547,93.642 203.793,82.999 182.883,75.802 C180.721,75.057 178.477,74.352 176.166,73.682 C173.386,82.677 169.676,92.18 165.169,101.89 C169.891,111.835 173.751,121.462 176.611,130.515 C177.903,130.132 179.171,129.737 180.406,129.328 Z M171.126,147.717 C170.773,145.934 170.363,144.111 169.903,142.251 C160.544,144.414 150.224,145.999 139.3,146.968 C133.09,155.958 126.727,164.054 120.36,171.018 C122.262,172.848 124.159,174.578 126.042,176.198 C142.464,190.33 157.693,195.688 164.814,191.566 C168.16,189.629 170.866,184.793 172.212,177.539 C173.71,169.466 173.387,159.139 171.126,147.717 Z M77.276,190.854 L77.277,190.854 C85.019,188.119 93.804,182.683 102.571,175.019 C104.038314,173.733197 105.473749,172.411463 106.876,171.055 C100.278,163.974 93.731,155.888 87.48,147.091 C76.53,146.203 66.285,144.73 57.03,142.683 C56.4107516,145.167932 55.86054,147.66956 55.38,150.185 C51.339,171.47 54.301,187.34 61.429,191.45 C64.778,193.381 70.319,193.311 77.276,190.854 Z M44.683,129.274 C46.5277463,129.901616 48.3876414,130.483792 50.261,131.02 C53.115,121.715 56.877,111.946 61.411,102.077 C56.935,92.353 53.226,82.737 50.398,73.54 C47.7823434,74.2796011 45.1888992,75.0956173 42.621,75.987 C22.162,83.12 9.895,93.615 9.895,101.842 C9.895,105.709 12.725,110.474 18.329,115.274 C24.566,120.614 33.665,125.508 44.683,129.274 Z M55.609,54.904 L55.609,54.903 C56.0680923,57.2363458 56.5859234,59.5577496 57.162,61.865 C66.514,59.746 76.687,58.164 87.314,57.179 C93.511,48.433 99.998,40.408 106.562,33.359 C105.429,32.276 104.298,31.229 103.172,30.229 C85.554,14.586 68.839,8.346 61.279,12.722 C54.182,16.83 51.362,33.201 55.609,54.904 Z M153.076,78.971 C155.320718,82.846675 157.487817,86.7667898 159.576,90.729 C162.434,84.039 164.861,77.513 166.808,71.272 C160.322,69.791 153.415,68.581 146.205,67.671 C148.576212,71.3878893 150.867077,75.15543 153.076,78.971 Z M113.329,40.257 C108.807,45.136 104.31,50.514 99.92,56.303 C108.817177,55.8865779 117.729011,55.8885802 126.626,56.309 C122.24,50.466 117.781,45.08 113.329,40.257 Z M73.327,79.037 C75.5465767,75.1886373 77.8562133,71.3929245 80.254,67.653 C73.091,68.548 66.216,69.727 59.769,71.17 C61.733,77.5 64.138,84.055 66.949,90.722 C68.9838071,86.7779128 71.1103861,82.881852 73.327,79.037 Z M80.46,136.72 C78.0034501,132.908927 75.6381114,129.039828 73.366,125.116 C71.1393091,121.269422 69.0033853,117.371011 66.96,113.424 C64.089,120.234 61.631,126.93 59.636,133.372 C66.081,134.775 73.06,135.894 80.46,136.72 Z M113.596,164.109 C118.018,159.24 122.461,153.772 126.861,147.792 C122.38,147.992 117.827,148.095 113.221,148.095 C108.738,148.095 104.327,148.009 100.001,147.839 C104.458,153.712 109.021,159.172 113.596,164.109 Z M159.668,113.077 C157.57276,117.11579 155.387885,121.107446 153.115,125.049 C150.879142,128.927289 148.566351,132.760714 146.178,136.547 C153.631,135.653 160.704,134.449 167.256,132.954 C165.234,126.621 162.688,119.961 159.668,113.077 Z M144.753,120.227 L144.754,120.227 C148.206436,114.247527 151.444822,108.146994 154.463,101.937 C151.413453,95.7896383 148.164735,89.7431073 144.722,83.807 C141.298605,77.8864072 137.667346,72.088466 133.835,66.424 C127.117,65.912 120.218,65.644 113.222,65.644 C106.257,65.644 99.367,65.91 92.647,66.418 C88.7754946,72.091196 85.1208604,77.9093895 81.691,83.86 L81.691,83.858 C78.2600631,89.8073435 75.05413,95.8836392 72.08,102.074 C75.0617139,108.262507 78.2773643,114.335549 81.72,120.28 C85.1788026,126.256158 88.8624363,132.099336 92.763,137.797 C99.35,138.224 106.19,138.443 113.221,138.443 C120.281,138.443 127.209,138.196 133.913,137.717 C137.714956,132.006038 141.3302,126.172956 144.753,120.227 Z M164.666,12.435 C157.562,8.338 141.971,14.07 125.289,28.588 C123.517798,30.133391 121.785263,31.7225479 120.093,33.354 C126.551,40.312 132.984,48.351 139.193,57.192 C149.851,58.192 160.031,59.802 169.405,61.965 C169.770679,60.4739046 170.109401,58.9763271 170.421,57.473 C175.175,34.396 172.232,16.799 164.666,12.435 Z" id="Combined-Shape"></path>
            <path d="M113.221,81.665 C124.365,81.665 133.398,90.699 133.398,101.842 C133.398,112.986 124.365,122.02 113.221,122.02 C102.078,122.02 93.044,112.986 93.044,101.842 C93.044,90.699 102.078,81.665 113.221,81.665" id="Shape"></path>
        </g>
    </g>
</svg>